<svg version="1" xmlns="http://www.w3.org/2000/svg" width="21.333" height="21.333" viewBox="0 0 16.000000 16.000000"><path d="M10.686 3.311a74.28 74.28 0 0 1-.132.224l-.054.092-.037.062-.168.285-.256.432-.155.262-.223.377a74.132 74.132 0 0 1-.315.534l-.203.34a41.266 41.266 0 0 0-.244.415l-.125.211a35.508 35.508 0 0 0-.154.267c0 .002-.003.005-.007.005a.007.007 0 0 0-.006.006 153.213 153.213 0 0 0-.436.741.893.893 0 0 0-.036.06l-.056.097a10.287 10.287 0 0 0-.132.223l-.083.14a9.04 9.04 0 0 0-.138.234c-.004.006-.02.032-.035.06l-.05.083A1207.01 1207.01 0 0 0 6.8 9.884c-.014.021-.104.175-.123.207l-.076.129-.147.249-.17.286c-.011.019-.044.076-.075.126l-.093.159a.504.504 0 0 1-.043.067 9.26 9.26 0 0 1-.247-.43 78.697 78.697 0 0 0-.778-1.35c-.02-.032-.019-.037.015-.045.035-.008.157-.048.213-.071a2.767 2.767 0 0 0 .69-.42 3.07 3.07 0 0 0 .587-.654l.042-.07a2.711 2.711 0 0 0 .383-1.083 3.37 3.37 0 0 0 .008-.658l-.007-.056a2.825 2.825 0 0 0-.275-.91 2.882 2.882 0 0 0-.631-.824 2.847 2.847 0 0 0-1.15-.624 2.86 2.86 0 0 0-.29-.06c-.021-.002-.04-.006-.041-.006a1.788 1.788 0 0 1-.118-.014c-.013-.002-1.025-.005-2.248-.006L0 3.825l.018.033c.01.02.037.065.059.102l.04.07a.84.84 0 0 0 .032.057l.148.257.377.657c.008.011.02.032.027.045l.029.052.016.027h1.747c.961 0 1.781.002 1.822.005a1.602 1.602 0 0 1 .459.093c.204.075.375.186.53.342.152.152.255.307.343.512.024.055.066.175.074.213a2.135 2.135 0 0 1 .04.194 1.75 1.75 0 0 1 0 .379 1.416 1.416 0 0 1-.162.512c-.11.2-.241.348-.444.503a1.895 1.895 0 0 1-.371.204c-.02.014-.224.072-.288.08-.015.004-.031.006-.036.007-.036.01-.202.012-.887.012-.423 0-.77.002-.768.004a7.933 7.933 0 0 0 .15.25 147.93 147.93 0 0 1 .595.982l.09.15.326.538.25.413.147.245.218.36a78.892 78.892 0 0 1 .397.659l.232.39a3.161 3.161 0 0 0 .157.242c.099.14.211.254.308.313.23.14.568.128.772-.027a1.07 1.07 0 0 0 .165-.166 6.1 6.1 0 0 0 .215-.311 135.724 135.724 0 0 1 .35-.585l.076-.131.075-.128a114.184 114.184 0 0 1 .297-.501l.101-.172.099-.169a92.115 92.115 0 0 1 .343-.583l.166-.281a25.161 25.161 0 0 0 .23-.393l.111-.188.232-.395.275-.469.075-.127.187-.318.23-.393.128-.216.025-.044.027-.046.034-.058.074-.124.024-.043.077-.13a221.586 221.586 0 0 0 .292-.498l.02-.033a.462.462 0 0 1 .022-.04.53.53 0 0 0 .036-.062 4.491 4.491 0 0 1 .083-.14l.062-.106c.068-.12.167-.284.17-.284.004 0 .027.038.21.35a9.805 9.805 0 0 0 .11.182c0 .002.042.074.094.16l.102.174.017.03c.004.006.03.048.055.093l.098.164.062.104.064.109c.027.046.09.15.137.232l.148.249.145.246.132.222.062.105a58.092 58.092 0 0 1 .339.573l.027.046.107.18a9.94 9.94 0 0 1 .103.177l.076.128.079.13.018.03a.934.934 0 0 0 .02.034l.047.082.083.14.229.386.116.197.064.108.092.156.028.045a.21.21 0 0 1 .018.031c0 .003.009.017.02.033.01.016.019.03.019.033 0 .002.01.02.023.04.027.042.036.046-.106-.038l-.122-.07-.12-.07-.12-.07-.187-.109-.184-.106-.163-.095-.163-.094-.03-.017c-.023-.014-.289-.17-.331-.193l-.236-.137a7.374 7.374 0 0 0-.232-.134 6.7 6.7 0 0 0-.711-.413l-.03-.018a3.965 3.965 0 0 0-.193-.11.216.216 0 0 0 .026.058.66.66 0 0 1 .03.056l.022.04.06.11a23.791 23.791 0 0 0 .239.446l.045.085.072.135.07.127.073.138a15.5 15.5 0 0 1 .195.363l.065.122a6.558 6.558 0 0 0 .093.173c.097.182.09.17.127.193l.082.046c.025.013.053.03.062.036l.069.04.063.036a80.88 80.88 0 0 1 .52.298l.271.155.108.063.108.062c.017.008.067.037.112.063l.111.064.136.078.043.025a26.036 26.036 0 0 0 .37.213l.077.043.053.03c.105.062.815.468.903.516.207.113.316.146.477.147a.494.494 0 0 0 .244-.057.554.554 0 0 0 .284-.292.367.367 0 0 0 .03-.184.41.41 0 0 0-.018-.142 2.742 2.742 0 0 0-.193-.424l-.054-.098a30.106 30.106 0 0 0-.326-.563l-.136-.231-.13-.221a51.712 51.712 0 0 1-.345-.587l-.046-.078-.052-.089a4.873 4.873 0 0 1-.078-.134l-.04-.066a.41.41 0 0 1-.026-.047 12.291 12.291 0 0 1-1.698-2.887l-.034-.057a33.494 33.494 0 0 1-.34-.578 18.577 18.577 0 0 0-.167-.285l-.134-.228a1.987 1.987 0 0 1-.064-.111.22.22 0 0 0-.02-.031.194.194 0 0 1-.02-.033 80.719 80.719 0 0 0-.438-.743c-.005-.013-.071-.125-.144-.25-.246-.417-.395-.67-.402-.684-.004-.007-.03-.048-.055-.092l-.061-.105-.137-.232a.831.831 0 0 1-.06-.105c0-.002-.003-.008-.008-.012-.006-.005-.027.024-.093.135zM.012 6.664c-.003.007-.006 1.388-.007 3.863l-.002 1.815.016.062c.05.201.168.324.371.388a.608.608 0 0 0 .137.029c.007 0 .052.004.099.005a.716.716 0 0 0 .425-.11.763.763 0 0 0 .133-.127.796.796 0 0 0 .087-.176c.042-.123.04-.02.042-1.829l.004-1.647-.026-.046a18.072 18.072 0 0 1-.236-.414.6.6 0 0 1-.027-.046l-.082-.144-.103-.18a23.264 23.264 0 0 0-.202-.353 31.595 31.595 0 0 1-.057-.099l-.099-.172a.801.801 0 0 1-.045-.082.771.771 0 0 1-.032-.054l-.033-.059-.156-.271-.157-.275c-.034-.062-.048-.083-.05-.078z"/></svg>