<?xml version="1.0" standalone="no"?>
<!DOCTYPE svg PUBLIC "-//W3C//DTD SVG 20010904//EN"
 "http://www.w3.org/TR/2001/REC-SVG-20010904/DTD/svg10.dtd">
<svg version="1.0" xmlns="http://www.w3.org/2000/svg"
 width="16.000000pt" height="16.000000pt" viewBox="0 0 16.000000 16.000000"
 preserveAspectRatio="xMidYMid meet">
<metadata>
Created by potrace 1.11, written by Peter Selinger 2001-2013
</metadata>
<g transform="translate(0.000000,16.000000) scale(0.000655,-0.000655)"
fill="#000000" stroke="none">
<path d="M16315 19372 c-70 -119 -161 -273 -202 -342 -41 -69 -78 -132 -83
-140 -6 -8 -31 -51 -56 -95 -26 -44 -141 -240 -257 -435 -115 -195 -291 -492
-390 -660 -99 -168 -205 -348 -237 -400 -31 -52 -184 -311 -340 -575 -155
-264 -295 -500 -310 -525 -15 -25 -93 -155 -172 -290 -232 -391 -299 -504
-309 -520 -17 -27 -221 -374 -246 -417 -13 -24 -70 -121 -126 -215 -57 -95
-143 -240 -191 -323 -49 -82 -122 -206 -162 -274 -41 -69 -74 -128 -74 -133 0
-4 -4 -8 -10 -8 -5 0 -10 -4 -10 -10 0 -5 -26 -53 -59 -107 -32 -54 -170 -287
-306 -518 -136 -231 -272 -459 -301 -507 -30 -48 -54 -89 -54 -91 0 -2 -39
-68 -86 -148 -48 -79 -94 -157 -104 -174 -9 -16 -53 -91 -97 -165 -44 -74
-101 -171 -127 -215 -25 -44 -50 -87 -56 -95 -5 -8 -40 -67 -77 -130 -37 -63
-72 -122 -78 -132 -5 -9 -29 -49 -53 -90 -24 -40 -58 -98 -76 -128 -128 -216
-731 -1235 -781 -1320 -116 -196 -478 -808 -504 -852 -20 -33 -158 -268 -187
-317 -12 -20 -64 -108 -116 -196 -52 -88 -154 -259 -225 -380 -119 -200 -169
-286 -259 -438 -17 -28 -68 -115 -114 -192 -46 -77 -110 -186 -143 -242 -33
-57 -63 -103 -66 -103 -6 0 -159 266 -376 656 -43 77 -276 489 -285 504 -22
38 -217 380 -239 420 -13 25 -39 69 -57 98 -19 29 -34 55 -34 57 0 3 -34 65
-76 138 -42 72 -120 206 -172 297 -147 256 -292 501 -325 549 -32 47 -29 55
23 67 53 12 239 74 325 109 210 84 512 247 710 383 82 56 298 218 344 257 337
290 571 542 803 865 41 58 83 119 92 135 9 17 38 64 64 105 147 231 292 536
392 825 40 118 116 381 126 440 2 17 7 38 10 48 3 11 7 29 9 40 6 44 16 102
20 117 4 13 9 45 20 120 2 14 6 43 9 65 35 249 42 797 11 1005 -2 14 -6 52
-10 85 -8 71 -11 93 -36 240 -62 366 -207 800 -384 1150 -234 463 -568 899
-964 1258 -150 137 -438 352 -603 452 -387 234 -774 402 -1153 500 -154 40
-332 76 -441 91 -33 4 -61 9 -64 9 -3 1 -36 5 -75 9 -38 4 -86 10 -105 13 -19
3 -1564 7 -3432 9 l-3397 2 28 -51 c16 -29 56 -99 90 -155 33 -57 61 -106 61
-108 0 -2 22 -41 49 -86 26 -46 128 -222 226 -393 141 -245 453 -789 576
-1002 11 -18 29 -50 40 -70 12 -21 32 -56 45 -79 l24 -41 2667 0 c1468 0 2720
-3 2783 -7 102 -6 203 -18 280 -32 14 -3 39 -7 56 -9 63 -9 271 -67 364 -102
311 -114 573 -283 810 -522 231 -232 389 -469 523 -781 36 -84 100 -268 113
-325 27 -119 44 -200 49 -240 4 -27 9 -53 11 -56 6 -11 18 -216 17 -309 0 -92
-9 -219 -17 -270 -3 -14 -7 -43 -10 -65 -24 -179 -86 -394 -167 -572 -10 -23
-19 -44 -19 -46 0 -3 -23 -47 -52 -98 -167 -305 -367 -532 -677 -769 -108 -83
-395 -245 -506 -285 -27 -10 -54 -22 -60 -26 -31 -22 -342 -110 -440 -124 -22
-4 -47 -8 -55 -10 -55 -15 -308 -18 -1353 -17 -647 0 -1175 -3 -1173 -6 13
-25 137 -230 176 -292 25 -41 49 -82 53 -90 4 -8 25 -44 48 -80 33 -53 385
-633 464 -764 136 -228 204 -340 232 -386 19 -30 93 -152 164 -270 71 -118
133 -222 138 -230 11 -17 187 -308 497 -820 115 -190 286 -473 381 -630 95
-157 197 -325 226 -375 29 -49 179 -297 332 -550 153 -253 285 -473 295 -490
9 -16 32 -55 51 -85 19 -30 41 -67 49 -81 12 -22 180 -299 211 -349 26 -44
304 -509 354 -595 53 -91 157 -255 177 -280 4 -5 33 -46 64 -90 150 -213 322
-388 469 -478 352 -214 868 -196 1179 41 74 56 168 151 252 254 52 65 295 415
329 475 16 28 352 590 402 673 25 41 57 95 71 120 13 25 28 50 32 55 4 6 17
26 28 45 11 19 64 109 117 200 54 91 106 179 115 195 10 17 111 188 225 380
114 193 216 366 227 385 11 19 81 138 155 263 73 125 142 241 151 257 65 112
301 513 406 690 18 30 71 120 118 200 47 80 161 273 253 430 93 157 176 299
185 315 10 17 85 145 167 285 83 140 159 269 169 287 26 44 200 341 354 603
246 418 403 685 420 715 9 17 61 104 115 195 54 91 182 309 285 485 103 176
261 446 352 600 90 154 177 303 194 330 16 28 33 58 39 67 5 9 24 40 41 70 17
29 40 69 51 88 22 39 98 167 113 190 5 8 22 38 38 65 15 28 68 118 117 200
131 223 353 601 393 670 19 33 43 74 53 90 10 17 23 39 29 50 5 11 21 38 35
60 14 22 28 47 32 55 3 8 14 26 23 40 10 14 26 41 37 60 10 19 51 89 90 155
39 66 81 139 94 161 104 182 255 434 260 434 6 0 41 -59 321 -535 72 -121 139
-232 149 -247 10 -15 19 -29 19 -31 0 -3 64 -112 142 -243 78 -132 149 -252
157 -267 9 -16 21 -36 26 -45 6 -9 44 -73 84 -142 41 -69 108 -181 149 -250
41 -69 84 -141 95 -160 10 -19 54 -93 97 -165 42 -71 137 -231 210 -355 73
-124 174 -295 225 -380 50 -85 151 -254 222 -375 72 -121 162 -274 201 -340
38 -66 81 -138 95 -160 40 -67 260 -438 278 -470 16 -29 220 -376 239 -405 5
-8 24 -40 42 -70 18 -30 91 -154 163 -275 72 -121 134 -227 138 -235 4 -8 13
-24 20 -35 7 -11 59 -99 116 -195 57 -96 111 -186 120 -200 8 -14 21 -34 27
-45 6 -11 19 -34 30 -52 10 -17 44 -74 73 -125 30 -51 87 -147 126 -213 134
-224 261 -440 350 -590 49 -82 128 -217 177 -300 49 -82 93 -157 98 -165 8
-13 101 -171 140 -239 9 -14 28 -45 43 -68 15 -24 27 -45 27 -48 0 -4 14 -26
30 -50 17 -24 30 -46 30 -50 0 -3 16 -31 35 -61 41 -64 56 -70 -162 57 -83 49
-167 97 -185 108 -18 10 -100 58 -183 106 -82 48 -166 96 -185 107 -19 11
-147 86 -285 166 -137 80 -263 153 -280 162 -16 10 -129 75 -250 146 -121 70
-233 135 -248 143 -16 9 -36 21 -45 26 -36 22 -442 258 -507 295 -16 9 -178
103 -359 208 -180 106 -331 192 -334 192 -3 0 -13 6 -21 14 -9 7 -41 27 -71
43 -30 17 -95 54 -145 83 -49 29 -121 71 -160 93 -38 22 -117 68 -175 102 -58
34 -125 73 -150 87 -25 14 -96 55 -158 92 -101 59 -167 97 -227 130 -11 6 -31
19 -45 27 -42 27 -225 133 -230 134 -3 0 -18 9 -33 19 -15 10 -30 17 -32 14
-3 -3 15 -42 40 -87 25 -45 45 -83 45 -86 0 -2 15 -30 34 -62 18 -32 59 -107
91 -168 51 -97 103 -194 220 -410 18 -33 54 -100 80 -150 26 -49 55 -103 65
-120 10 -16 41 -75 70 -130 29 -55 78 -147 110 -205 31 -58 79 -145 105 -195
26 -49 77 -144 113 -210 84 -155 129 -239 187 -350 26 -49 76 -142 110 -205
35 -63 79 -146 100 -185 20 -38 47 -88 59 -110 12 -22 50 -92 83 -155 148
-277 136 -259 194 -294 30 -18 86 -49 124 -70 39 -21 81 -46 95 -56 14 -9 61
-37 105 -61 44 -24 88 -48 97 -54 88 -50 324 -186 368 -211 30 -17 222 -127
425 -244 204 -117 390 -224 415 -238 25 -14 99 -57 165 -95 66 -39 140 -81
165 -95 25 -13 101 -57 170 -96 69 -40 145 -84 170 -98 40 -23 104 -59 208
-119 17 -11 47 -27 65 -38 248 -143 313 -180 377 -216 41 -23 126 -72 189
-109 62 -36 115 -66 116 -66 2 0 38 -21 81 -46 160 -94 1245 -714 1379 -787
316 -173 482 -224 728 -225 143 0 239 22 372 87 212 104 358 253 435 445 40
100 45 131 44 281 -1 109 -5 144 -27 217 -45 147 -172 428 -294 648 -17 30
-54 98 -83 150 -29 52 -64 115 -77 140 -14 25 -110 190 -214 367 -104 177
-197 336 -206 352 -10 17 -103 175 -208 353 -104 177 -193 329 -198 337 -4 9
-15 28 -25 43 -9 14 -35 57 -56 95 -22 37 -105 178 -184 313 -80 135 -156 265
-170 290 -13 25 -28 50 -32 55 -5 6 -32 51 -60 100 -29 50 -60 104 -70 120
-10 17 -46 77 -80 135 -62 104 -82 138 -119 204 -11 18 -38 64 -60 101 -23 37
-41 69 -41 72 0 3 -8 17 -19 31 -10 15 -29 47 -43 72 -14 25 -92 158 -173 295
-81 138 -155 264 -165 280 -9 17 -62 107 -117 200 -264 448 -439 745 -471 800
-61 106 -68 118 -152 260 -46 77 -91 154 -100 171 -10 17 -38 64 -63 105 -45
76 -269 456 -305 519 -57 100 -168 289 -187 320 -30 46 -169 282 -174 295 -2
6 -15 27 -28 48 -13 21 -32 53 -42 70 -62 110 -296 507 -312 529 -10 15 -19
29 -19 31 0 2 -44 78 -97 168 -53 90 -110 187 -125 214 -16 28 -39 66 -51 87
-55 91 -314 530 -327 555 -8 15 -26 46 -39 68 -13 22 -82 139 -153 260 -70
121 -132 227 -137 235 -5 8 -59 98 -119 200 -60 102 -152 259 -205 348 -54 90
-97 166 -97 169 0 2 -13 24 -30 48 -16 24 -30 46 -30 50 0 3 -12 24 -27 48
-14 23 -47 78 -73 122 -105 182 -494 843 -520 885 -16 25 -37 61 -48 80 -10
19 -111 190 -222 380 -375 637 -603 1025 -614 1045 -6 11 -44 74 -83 140 -39
66 -82 138 -94 161 -19 32 -165 280 -209 354 -63 105 -90 153 -90 160 0 4 -6
12 -13 18 -10 9 -41 -36 -142 -206z"/>
<path d="M18 14253 c-5 -10 -9 -2118 -11 -5898 l-2 -2770 24 -95 c76 -307 257
-495 567 -593 43 -14 103 -28 133 -32 30 -4 63 -9 75 -11 12 -2 80 -6 151 -8
252 -7 477 51 649 168 58 40 160 137 203 194 41 54 103 179 134 268 63 188 60
31 64 2792 l5 2515 -39 71 c-21 39 -80 143 -131 231 -51 88 -106 185 -123 215
-17 30 -38 67 -49 82 -10 14 -18 29 -18 32 0 4 -18 36 -40 72 -22 36 -40 67
-40 69 0 2 -57 101 -126 221 -69 121 -140 244 -157 274 -17 30 -62 109 -100
175 -38 66 -96 167 -129 225 -33 58 -69 121 -80 140 -11 19 -50 87 -86 150
-81 144 -88 155 -151 263 -28 49 -51 91 -51 94 0 3 -8 17 -18 31 -11 15 -32
52 -49 82 -17 30 -39 71 -50 90 -11 19 -118 206 -238 415 -120 209 -229 398
-241 420 -51 94 -72 126 -76 118z"/>
</g>
</svg>
